<mxfile host="Electron" agent="Mozilla/5.0 (Windows NT 10.0; Win64; x64) AppleWebKit/537.36 (KHTML, like Gecko) draw.io/28.1.2 Chrome/138.0.7204.243 Electron/37.4.0 Safari/537.36" version="28.1.2">
  <diagram name="Page-1" id="efa7a0a1-bf9b-a30e-e6df-94a7791c09e9">
    <mxGraphModel dx="1192" dy="714" grid="1" gridSize="10" guides="1" tooltips="1" connect="1" arrows="1" fold="1" page="1" pageScale="1" pageWidth="1100" pageHeight="850" background="none" math="0" shadow="0">
      <root>
        <mxCell id="0" />
        <mxCell id="1" parent="0" />
        <mxCell id="3H9-l_bYr0BemmVUanZa-124" style="edgeStyle=orthogonalEdgeStyle;rounded=0;orthogonalLoop=1;jettySize=auto;html=1;exitX=0.5;exitY=1;exitDx=0;exitDy=0;entryX=0.5;entryY=0;entryDx=0;entryDy=0;" parent="1" source="3H9-l_bYr0BemmVUanZa-114" target="3H9-l_bYr0BemmVUanZa-115" edge="1">
          <mxGeometry relative="1" as="geometry" />
        </mxCell>
        <mxCell id="3H9-l_bYr0BemmVUanZa-125" style="edgeStyle=orthogonalEdgeStyle;rounded=0;orthogonalLoop=1;jettySize=auto;html=1;exitX=0.5;exitY=1;exitDx=0;exitDy=0;entryX=0.5;entryY=0;entryDx=0;entryDy=0;" parent="1" source="3H9-l_bYr0BemmVUanZa-114" target="3H9-l_bYr0BemmVUanZa-116" edge="1">
          <mxGeometry relative="1" as="geometry" />
        </mxCell>
        <mxCell id="3H9-l_bYr0BemmVUanZa-127" style="edgeStyle=orthogonalEdgeStyle;rounded=0;orthogonalLoop=1;jettySize=auto;html=1;exitX=0.5;exitY=1;exitDx=0;exitDy=0;" parent="1" source="3H9-l_bYr0BemmVUanZa-114" target="3H9-l_bYr0BemmVUanZa-118" edge="1">
          <mxGeometry relative="1" as="geometry" />
        </mxCell>
        <mxCell id="3H9-l_bYr0BemmVUanZa-128" style="edgeStyle=orthogonalEdgeStyle;rounded=0;orthogonalLoop=1;jettySize=auto;html=1;exitX=0.5;exitY=1;exitDx=0;exitDy=0;entryX=0.5;entryY=0;entryDx=0;entryDy=0;" parent="1" source="3H9-l_bYr0BemmVUanZa-114" target="3H9-l_bYr0BemmVUanZa-119" edge="1">
          <mxGeometry relative="1" as="geometry" />
        </mxCell>
        <mxCell id="3H9-l_bYr0BemmVUanZa-155" style="edgeStyle=orthogonalEdgeStyle;rounded=0;orthogonalLoop=1;jettySize=auto;html=1;exitX=0.5;exitY=1;exitDx=0;exitDy=0;entryX=0.5;entryY=0;entryDx=0;entryDy=0;" parent="1" source="3H9-l_bYr0BemmVUanZa-114" target="3H9-l_bYr0BemmVUanZa-144" edge="1">
          <mxGeometry relative="1" as="geometry" />
        </mxCell>
        <mxCell id="3H9-l_bYr0BemmVUanZa-170" style="edgeStyle=orthogonalEdgeStyle;rounded=0;orthogonalLoop=1;jettySize=auto;html=1;exitX=0.5;exitY=1;exitDx=0;exitDy=0;entryX=0.5;entryY=0;entryDx=0;entryDy=0;" parent="1" source="3H9-l_bYr0BemmVUanZa-114" target="3H9-l_bYr0BemmVUanZa-168" edge="1">
          <mxGeometry relative="1" as="geometry" />
        </mxCell>
        <mxCell id="3H9-l_bYr0BemmVUanZa-223" style="edgeStyle=orthogonalEdgeStyle;rounded=0;orthogonalLoop=1;jettySize=auto;html=1;exitX=0.5;exitY=1;exitDx=0;exitDy=0;entryX=0.5;entryY=0;entryDx=0;entryDy=0;fontSize=14;" parent="1" source="3H9-l_bYr0BemmVUanZa-114" edge="1">
          <mxGeometry relative="1" as="geometry">
            <mxPoint x="950" y="162" as="targetPoint" />
          </mxGeometry>
        </mxCell>
        <mxCell id="MuZfCcUwaussZc465k3L-10" style="edgeStyle=orthogonalEdgeStyle;rounded=0;orthogonalLoop=1;jettySize=auto;html=1;exitX=0.5;exitY=1;exitDx=0;exitDy=0;entryX=0.5;entryY=0;entryDx=0;entryDy=0;" edge="1" parent="1" source="3H9-l_bYr0BemmVUanZa-114" target="3H9-l_bYr0BemmVUanZa-120">
          <mxGeometry relative="1" as="geometry" />
        </mxCell>
        <mxCell id="MuZfCcUwaussZc465k3L-11" style="edgeStyle=orthogonalEdgeStyle;rounded=0;orthogonalLoop=1;jettySize=auto;html=1;exitX=0.5;exitY=1;exitDx=0;exitDy=0;entryX=0.5;entryY=0;entryDx=0;entryDy=0;" edge="1" parent="1" source="3H9-l_bYr0BemmVUanZa-114" target="MuZfCcUwaussZc465k3L-2">
          <mxGeometry relative="1" as="geometry" />
        </mxCell>
        <mxCell id="MuZfCcUwaussZc465k3L-12" style="edgeStyle=orthogonalEdgeStyle;rounded=0;orthogonalLoop=1;jettySize=auto;html=1;exitX=0.5;exitY=1;exitDx=0;exitDy=0;entryX=0.5;entryY=0;entryDx=0;entryDy=0;" edge="1" parent="1" source="3H9-l_bYr0BemmVUanZa-114" target="MuZfCcUwaussZc465k3L-3">
          <mxGeometry relative="1" as="geometry" />
        </mxCell>
        <mxCell id="MuZfCcUwaussZc465k3L-16" style="edgeStyle=orthogonalEdgeStyle;rounded=0;orthogonalLoop=1;jettySize=auto;html=1;exitX=0.5;exitY=1;exitDx=0;exitDy=0;" edge="1" parent="1" source="3H9-l_bYr0BemmVUanZa-114" target="MuZfCcUwaussZc465k3L-4">
          <mxGeometry relative="1" as="geometry" />
        </mxCell>
        <mxCell id="MuZfCcUwaussZc465k3L-45" style="edgeStyle=orthogonalEdgeStyle;rounded=0;orthogonalLoop=1;jettySize=auto;html=1;exitX=0.5;exitY=1;exitDx=0;exitDy=0;entryX=0.5;entryY=0;entryDx=0;entryDy=0;" edge="1" parent="1" source="3H9-l_bYr0BemmVUanZa-114" target="O9UMptHPrvoA3U17ZO_q-1">
          <mxGeometry relative="1" as="geometry" />
        </mxCell>
        <mxCell id="3H9-l_bYr0BemmVUanZa-114" value="&lt;font style=&quot;font-size: 14px;&quot;&gt;Home&lt;/font&gt;" style="rounded=1;whiteSpace=wrap;html=1;fillColor=#FFF2CC;" parent="1" vertex="1">
          <mxGeometry x="890" y="40" width="120" height="60" as="geometry" />
        </mxCell>
        <mxCell id="MuZfCcUwaussZc465k3L-6" style="edgeStyle=orthogonalEdgeStyle;rounded=0;orthogonalLoop=1;jettySize=auto;html=1;exitX=0.5;exitY=1;exitDx=0;exitDy=0;entryX=0.5;entryY=0;entryDx=0;entryDy=0;fillColor=#e1d5e7;strokeColor=#9673a6;strokeWidth=3;" edge="1" parent="1" source="3H9-l_bYr0BemmVUanZa-115" target="MuZfCcUwaussZc465k3L-17">
          <mxGeometry relative="1" as="geometry" />
        </mxCell>
        <mxCell id="3H9-l_bYr0BemmVUanZa-115" value="&lt;font style=&quot;font-size: 14px;&quot;&gt;Request A Bed&lt;/font&gt;" style="rounded=1;whiteSpace=wrap;html=1;fillColor=#FFF2CC;" parent="1" vertex="1">
          <mxGeometry x="160" y="162" width="120" height="60" as="geometry" />
        </mxCell>
        <mxCell id="3H9-l_bYr0BemmVUanZa-116" value="&lt;font style=&quot;font-size: 14px;&quot;&gt;Volunteer&lt;/font&gt;" style="rounded=1;whiteSpace=wrap;html=1;fillColor=#FFF2CC;" parent="1" vertex="1">
          <mxGeometry x="300" y="162" width="120" height="60" as="geometry" />
        </mxCell>
        <mxCell id="3H9-l_bYr0BemmVUanZa-117" value="&lt;font style=&quot;font-size: 14px;&quot;&gt;Assembly&lt;br&gt;Instructions&lt;/font&gt;" style="rounded=1;whiteSpace=wrap;html=1;fillColor=#BDDEB0;" parent="1" vertex="1">
          <mxGeometry x="720" y="510" width="120" height="60" as="geometry" />
        </mxCell>
        <mxCell id="MuZfCcUwaussZc465k3L-8" style="edgeStyle=orthogonalEdgeStyle;rounded=0;orthogonalLoop=1;jettySize=auto;html=1;exitX=0.5;exitY=1;exitDx=0;exitDy=0;entryX=0;entryY=0.5;entryDx=0;entryDy=0;fillColor=#e1d5e7;strokeColor=#9673a6;strokeWidth=3;" edge="1" parent="1" source="3H9-l_bYr0BemmVUanZa-118" target="3H9-l_bYr0BemmVUanZa-121">
          <mxGeometry relative="1" as="geometry" />
        </mxCell>
        <mxCell id="3H9-l_bYr0BemmVUanZa-118" value="&lt;font style=&quot;font-size: 14px;&quot;&gt;Bed Brigade Near Me&lt;/font&gt;" style="rounded=1;whiteSpace=wrap;html=1;fillColor=#FFF2CC;" parent="1" vertex="1">
          <mxGeometry x="440" y="161" width="120" height="60" as="geometry" />
        </mxCell>
        <mxCell id="3H9-l_bYr0BemmVUanZa-119" value="&lt;font style=&quot;font-size: 14px;&quot;&gt;About Us&lt;/font&gt;" style="rounded=1;whiteSpace=wrap;html=1;fillColor=#FFF2CC;" parent="1" vertex="1">
          <mxGeometry x="720" y="162" width="120" height="60" as="geometry" />
        </mxCell>
        <mxCell id="MuZfCcUwaussZc465k3L-33" style="edgeStyle=orthogonalEdgeStyle;rounded=0;orthogonalLoop=1;jettySize=auto;html=1;exitX=0.5;exitY=1;exitDx=0;exitDy=0;entryX=0.5;entryY=0;entryDx=0;entryDy=0;fillColor=#f8cecc;strokeColor=#b85450;strokeWidth=3;" edge="1" parent="1" source="3H9-l_bYr0BemmVUanZa-120" target="3H9-l_bYr0BemmVUanZa-137">
          <mxGeometry relative="1" as="geometry">
            <Array as="points">
              <mxPoint x="640" y="350" />
              <mxPoint x="360" y="350" />
            </Array>
          </mxGeometry>
        </mxCell>
        <mxCell id="3H9-l_bYr0BemmVUanZa-120" value="&lt;font style=&quot;font-size: 14px;&quot;&gt;Donate&lt;/font&gt;" style="rounded=1;whiteSpace=wrap;html=1;fillColor=#FFF2CC;" parent="1" vertex="1">
          <mxGeometry x="580" y="161" width="120" height="60" as="geometry" />
        </mxCell>
        <mxCell id="3H9-l_bYr0BemmVUanZa-203" style="edgeStyle=orthogonalEdgeStyle;rounded=0;orthogonalLoop=1;jettySize=auto;html=1;exitX=0.5;exitY=1;exitDx=0;exitDy=0;entryX=0.5;entryY=0;entryDx=0;entryDy=0;fontSize=16;" parent="1" source="3H9-l_bYr0BemmVUanZa-121" target="3H9-l_bYr0BemmVUanZa-134" edge="1">
          <mxGeometry relative="1" as="geometry" />
        </mxCell>
        <mxCell id="MuZfCcUwaussZc465k3L-37" style="edgeStyle=orthogonalEdgeStyle;rounded=0;orthogonalLoop=1;jettySize=auto;html=1;exitX=0.5;exitY=1;exitDx=0;exitDy=0;entryX=0.5;entryY=0;entryDx=0;entryDy=0;" edge="1" parent="1" source="3H9-l_bYr0BemmVUanZa-121" target="MuZfCcUwaussZc465k3L-26">
          <mxGeometry relative="1" as="geometry" />
        </mxCell>
        <mxCell id="MuZfCcUwaussZc465k3L-38" style="edgeStyle=orthogonalEdgeStyle;rounded=0;orthogonalLoop=1;jettySize=auto;html=1;exitX=0.5;exitY=1;exitDx=0;exitDy=0;" edge="1" parent="1" source="3H9-l_bYr0BemmVUanZa-121" target="3H9-l_bYr0BemmVUanZa-117">
          <mxGeometry relative="1" as="geometry" />
        </mxCell>
        <mxCell id="MuZfCcUwaussZc465k3L-39" style="edgeStyle=orthogonalEdgeStyle;rounded=0;orthogonalLoop=1;jettySize=auto;html=1;exitX=0.5;exitY=1;exitDx=0;exitDy=0;entryX=0.5;entryY=0;entryDx=0;entryDy=0;" edge="1" parent="1" source="3H9-l_bYr0BemmVUanZa-121" target="MuZfCcUwaussZc465k3L-25">
          <mxGeometry relative="1" as="geometry" />
        </mxCell>
        <mxCell id="MuZfCcUwaussZc465k3L-40" style="edgeStyle=orthogonalEdgeStyle;rounded=0;orthogonalLoop=1;jettySize=auto;html=1;exitX=0.5;exitY=1;exitDx=0;exitDy=0;entryX=0.25;entryY=0;entryDx=0;entryDy=0;" edge="1" parent="1" source="3H9-l_bYr0BemmVUanZa-121" target="3H9-l_bYr0BemmVUanZa-135">
          <mxGeometry relative="1" as="geometry" />
        </mxCell>
        <mxCell id="MuZfCcUwaussZc465k3L-41" style="edgeStyle=orthogonalEdgeStyle;rounded=0;orthogonalLoop=1;jettySize=auto;html=1;exitX=0.5;exitY=1;exitDx=0;exitDy=0;entryX=0.5;entryY=0;entryDx=0;entryDy=0;" edge="1" parent="1" source="3H9-l_bYr0BemmVUanZa-121" target="MuZfCcUwaussZc465k3L-27">
          <mxGeometry relative="1" as="geometry" />
        </mxCell>
        <mxCell id="MuZfCcUwaussZc465k3L-42" style="edgeStyle=orthogonalEdgeStyle;rounded=0;orthogonalLoop=1;jettySize=auto;html=1;exitX=0.5;exitY=1;exitDx=0;exitDy=0;entryX=0.5;entryY=0;entryDx=0;entryDy=0;" edge="1" parent="1" source="3H9-l_bYr0BemmVUanZa-121" target="3H9-l_bYr0BemmVUanZa-136">
          <mxGeometry relative="1" as="geometry" />
        </mxCell>
        <mxCell id="MuZfCcUwaussZc465k3L-43" style="edgeStyle=orthogonalEdgeStyle;rounded=0;orthogonalLoop=1;jettySize=auto;html=1;exitX=0.5;exitY=1;exitDx=0;exitDy=0;entryX=0.5;entryY=0;entryDx=0;entryDy=0;" edge="1" parent="1" source="3H9-l_bYr0BemmVUanZa-121" target="MuZfCcUwaussZc465k3L-28">
          <mxGeometry relative="1" as="geometry" />
        </mxCell>
        <mxCell id="MuZfCcUwaussZc465k3L-44" style="edgeStyle=orthogonalEdgeStyle;rounded=0;orthogonalLoop=1;jettySize=auto;html=1;exitX=0.5;exitY=1;exitDx=0;exitDy=0;entryX=0.5;entryY=0;entryDx=0;entryDy=0;" edge="1" parent="1" source="3H9-l_bYr0BemmVUanZa-121" target="MuZfCcUwaussZc465k3L-29">
          <mxGeometry relative="1" as="geometry" />
        </mxCell>
        <mxCell id="3H9-l_bYr0BemmVUanZa-121" value="&lt;font style=&quot;font-size: 14px;&quot;&gt;Location&lt;br&gt;Home Page&lt;/font&gt;" style="rounded=1;whiteSpace=wrap;html=1;fillColor=#BDDEB0;" parent="1" vertex="1">
          <mxGeometry x="720" y="341" width="120" height="60" as="geometry" />
        </mxCell>
        <mxCell id="3H9-l_bYr0BemmVUanZa-132" value="&lt;font style=&quot;font-size: 14px;&quot;&gt;Request A Bed&lt;/font&gt;" style="rounded=1;whiteSpace=wrap;html=1;fillColor=#BDDEB0;" parent="1" vertex="1">
          <mxGeometry x="20" y="510" width="120" height="60" as="geometry" />
        </mxCell>
        <mxCell id="3H9-l_bYr0BemmVUanZa-133" value="&lt;font style=&quot;font-size: 14px;&quot;&gt;Volunteer&lt;/font&gt;" style="rounded=1;whiteSpace=wrap;html=1;fillColor=#BDDEB0;" parent="1" vertex="1">
          <mxGeometry x="160" y="510" width="120" height="60" as="geometry" />
        </mxCell>
        <mxCell id="3H9-l_bYr0BemmVUanZa-152" style="edgeStyle=orthogonalEdgeStyle;rounded=0;orthogonalLoop=1;jettySize=auto;html=1;exitX=0.5;exitY=1;exitDx=0;exitDy=0;entryX=0.5;entryY=0;entryDx=0;entryDy=0;" parent="1" source="3H9-l_bYr0BemmVUanZa-134" target="3H9-l_bYr0BemmVUanZa-147" edge="1">
          <mxGeometry relative="1" as="geometry" />
        </mxCell>
        <mxCell id="3H9-l_bYr0BemmVUanZa-134" value="&lt;font style=&quot;font-size: 14px;&quot;&gt;Stories&lt;/font&gt;" style="rounded=1;whiteSpace=wrap;html=1;fillColor=#BDDEB0;" parent="1" vertex="1">
          <mxGeometry x="440" y="510" width="120" height="60" as="geometry" />
        </mxCell>
        <mxCell id="3H9-l_bYr0BemmVUanZa-135" value="&lt;font style=&quot;font-size: 14px;&quot;&gt;Contact Us&lt;/font&gt;" style="rounded=1;whiteSpace=wrap;html=1;fillColor=#BDDEB0;" parent="1" vertex="1">
          <mxGeometry x="1000" y="510" width="90" height="60" as="geometry" />
        </mxCell>
        <mxCell id="3H9-l_bYr0BemmVUanZa-136" value="&lt;font style=&quot;font-size: 14px;&quot;&gt;Partners&lt;/font&gt;" style="rounded=1;whiteSpace=wrap;html=1;fillColor=#BDDEB0;" parent="1" vertex="1">
          <mxGeometry x="1280" y="510" width="120" height="60" as="geometry" />
        </mxCell>
        <mxCell id="3H9-l_bYr0BemmVUanZa-137" value="&lt;font style=&quot;font-size: 14px;&quot;&gt;Donate&lt;/font&gt;" style="rounded=1;whiteSpace=wrap;html=1;fillColor=#BDDEB0;" parent="1" vertex="1">
          <mxGeometry x="300" y="510" width="120" height="60" as="geometry" />
        </mxCell>
        <mxCell id="MuZfCcUwaussZc465k3L-55" style="edgeStyle=orthogonalEdgeStyle;rounded=0;orthogonalLoop=1;jettySize=auto;html=1;exitX=0.5;exitY=1;exitDx=0;exitDy=0;entryX=0.393;entryY=-0.038;entryDx=0;entryDy=0;entryPerimeter=0;" edge="1" parent="1" source="3H9-l_bYr0BemmVUanZa-144" target="3H9-l_bYr0BemmVUanZa-176">
          <mxGeometry relative="1" as="geometry">
            <Array as="points">
              <mxPoint x="2128" y="700" />
              <mxPoint x="540" y="700" />
            </Array>
          </mxGeometry>
        </mxCell>
        <mxCell id="MuZfCcUwaussZc465k3L-56" style="edgeStyle=orthogonalEdgeStyle;rounded=0;orthogonalLoop=1;jettySize=auto;html=1;exitX=0.5;exitY=1;exitDx=0;exitDy=0;entryX=0.5;entryY=0;entryDx=0;entryDy=0;" edge="1" parent="1" source="3H9-l_bYr0BemmVUanZa-144" target="3H9-l_bYr0BemmVUanZa-165">
          <mxGeometry relative="1" as="geometry">
            <Array as="points">
              <mxPoint x="2128" y="700" />
              <mxPoint x="629" y="700" />
            </Array>
          </mxGeometry>
        </mxCell>
        <mxCell id="MuZfCcUwaussZc465k3L-57" style="edgeStyle=orthogonalEdgeStyle;rounded=0;orthogonalLoop=1;jettySize=auto;html=1;exitX=0.5;exitY=1;exitDx=0;exitDy=0;" edge="1" parent="1" source="3H9-l_bYr0BemmVUanZa-144" target="MuZfCcUwaussZc465k3L-46">
          <mxGeometry relative="1" as="geometry">
            <Array as="points">
              <mxPoint x="2128" y="700" />
              <mxPoint x="704" y="700" />
            </Array>
          </mxGeometry>
        </mxCell>
        <mxCell id="MuZfCcUwaussZc465k3L-58" style="edgeStyle=orthogonalEdgeStyle;rounded=0;orthogonalLoop=1;jettySize=auto;html=1;exitX=0.5;exitY=1;exitDx=0;exitDy=0;entryX=0.5;entryY=0;entryDx=0;entryDy=0;" edge="1" parent="1" source="3H9-l_bYr0BemmVUanZa-144" target="3H9-l_bYr0BemmVUanZa-163">
          <mxGeometry relative="1" as="geometry">
            <Array as="points">
              <mxPoint x="2128" y="700" />
              <mxPoint x="794" y="700" />
            </Array>
          </mxGeometry>
        </mxCell>
        <mxCell id="MuZfCcUwaussZc465k3L-60" style="edgeStyle=orthogonalEdgeStyle;rounded=0;orthogonalLoop=1;jettySize=auto;html=1;exitX=0.5;exitY=1;exitDx=0;exitDy=0;entryX=0.5;entryY=0;entryDx=0;entryDy=0;" edge="1" parent="1" source="3H9-l_bYr0BemmVUanZa-144" target="MuZfCcUwaussZc465k3L-48">
          <mxGeometry relative="1" as="geometry">
            <Array as="points">
              <mxPoint x="2128" y="700" />
              <mxPoint x="884" y="700" />
            </Array>
          </mxGeometry>
        </mxCell>
        <mxCell id="MuZfCcUwaussZc465k3L-61" style="edgeStyle=orthogonalEdgeStyle;rounded=0;orthogonalLoop=1;jettySize=auto;html=1;exitX=0.5;exitY=1;exitDx=0;exitDy=0;entryX=0.5;entryY=0;entryDx=0;entryDy=0;" edge="1" parent="1" source="3H9-l_bYr0BemmVUanZa-144" target="3H9-l_bYr0BemmVUanZa-177">
          <mxGeometry relative="1" as="geometry">
            <Array as="points">
              <mxPoint x="2128" y="700" />
              <mxPoint x="964" y="700" />
            </Array>
          </mxGeometry>
        </mxCell>
        <mxCell id="MuZfCcUwaussZc465k3L-62" style="edgeStyle=orthogonalEdgeStyle;rounded=0;orthogonalLoop=1;jettySize=auto;html=1;exitX=0.5;exitY=1;exitDx=0;exitDy=0;entryX=0.5;entryY=0;entryDx=0;entryDy=0;" edge="1" parent="1" source="3H9-l_bYr0BemmVUanZa-144" target="3H9-l_bYr0BemmVUanZa-164">
          <mxGeometry relative="1" as="geometry">
            <Array as="points">
              <mxPoint x="2128" y="700" />
              <mxPoint x="1044" y="700" />
            </Array>
          </mxGeometry>
        </mxCell>
        <mxCell id="MuZfCcUwaussZc465k3L-64" style="edgeStyle=orthogonalEdgeStyle;rounded=0;orthogonalLoop=1;jettySize=auto;html=1;exitX=0.5;exitY=1;exitDx=0;exitDy=0;entryX=0.5;entryY=0;entryDx=0;entryDy=0;" edge="1" parent="1" source="3H9-l_bYr0BemmVUanZa-144" target="3H9-l_bYr0BemmVUanZa-161">
          <mxGeometry relative="1" as="geometry">
            <Array as="points">
              <mxPoint x="2128" y="700" />
              <mxPoint x="1157" y="700" />
            </Array>
          </mxGeometry>
        </mxCell>
        <mxCell id="MuZfCcUwaussZc465k3L-65" style="edgeStyle=orthogonalEdgeStyle;rounded=0;orthogonalLoop=1;jettySize=auto;html=1;exitX=0.5;exitY=1;exitDx=0;exitDy=0;entryX=0.5;entryY=0;entryDx=0;entryDy=0;" edge="1" parent="1" source="3H9-l_bYr0BemmVUanZa-144" target="3H9-l_bYr0BemmVUanZa-160">
          <mxGeometry relative="1" as="geometry">
            <Array as="points">
              <mxPoint x="2128" y="700" />
              <mxPoint x="1237" y="700" />
            </Array>
          </mxGeometry>
        </mxCell>
        <mxCell id="MuZfCcUwaussZc465k3L-66" style="edgeStyle=orthogonalEdgeStyle;rounded=0;orthogonalLoop=1;jettySize=auto;html=1;exitX=0.5;exitY=1;exitDx=0;exitDy=0;" edge="1" parent="1" source="3H9-l_bYr0BemmVUanZa-144" target="3H9-l_bYr0BemmVUanZa-159">
          <mxGeometry relative="1" as="geometry">
            <Array as="points">
              <mxPoint x="2128" y="700" />
              <mxPoint x="1317" y="700" />
            </Array>
          </mxGeometry>
        </mxCell>
        <mxCell id="MuZfCcUwaussZc465k3L-67" style="edgeStyle=orthogonalEdgeStyle;rounded=0;orthogonalLoop=1;jettySize=auto;html=1;exitX=0.5;exitY=1;exitDx=0;exitDy=0;entryX=0.5;entryY=0;entryDx=0;entryDy=0;" edge="1" parent="1" source="3H9-l_bYr0BemmVUanZa-144" target="3H9-l_bYr0BemmVUanZa-149">
          <mxGeometry relative="1" as="geometry">
            <Array as="points">
              <mxPoint x="2128" y="700" />
              <mxPoint x="1387" y="700" />
            </Array>
          </mxGeometry>
        </mxCell>
        <mxCell id="MuZfCcUwaussZc465k3L-68" style="edgeStyle=orthogonalEdgeStyle;rounded=0;orthogonalLoop=1;jettySize=auto;html=1;exitX=0.5;exitY=1;exitDx=0;exitDy=0;entryX=0.5;entryY=0;entryDx=0;entryDy=0;" edge="1" parent="1" source="3H9-l_bYr0BemmVUanZa-144" target="MuZfCcUwaussZc465k3L-49">
          <mxGeometry relative="1" as="geometry">
            <Array as="points">
              <mxPoint x="2128" y="700" />
              <mxPoint x="1467" y="700" />
            </Array>
          </mxGeometry>
        </mxCell>
        <mxCell id="MuZfCcUwaussZc465k3L-69" style="edgeStyle=orthogonalEdgeStyle;rounded=0;orthogonalLoop=1;jettySize=auto;html=1;exitX=0.5;exitY=1;exitDx=0;exitDy=0;entryX=0.5;entryY=0;entryDx=0;entryDy=0;" edge="1" parent="1" source="3H9-l_bYr0BemmVUanZa-144" target="MuZfCcUwaussZc465k3L-50">
          <mxGeometry relative="1" as="geometry">
            <Array as="points">
              <mxPoint x="2128" y="700" />
              <mxPoint x="1547" y="700" />
            </Array>
          </mxGeometry>
        </mxCell>
        <mxCell id="MuZfCcUwaussZc465k3L-70" style="edgeStyle=orthogonalEdgeStyle;rounded=0;orthogonalLoop=1;jettySize=auto;html=1;exitX=0.5;exitY=1;exitDx=0;exitDy=0;" edge="1" parent="1" source="3H9-l_bYr0BemmVUanZa-144" target="MuZfCcUwaussZc465k3L-51">
          <mxGeometry relative="1" as="geometry">
            <Array as="points">
              <mxPoint x="2128" y="700" />
              <mxPoint x="1627" y="700" />
            </Array>
          </mxGeometry>
        </mxCell>
        <mxCell id="MuZfCcUwaussZc465k3L-71" style="edgeStyle=orthogonalEdgeStyle;rounded=0;orthogonalLoop=1;jettySize=auto;html=1;exitX=0.5;exitY=1;exitDx=0;exitDy=0;entryX=0.5;entryY=0;entryDx=0;entryDy=0;" edge="1" parent="1" source="3H9-l_bYr0BemmVUanZa-144" target="MuZfCcUwaussZc465k3L-52">
          <mxGeometry relative="1" as="geometry">
            <Array as="points">
              <mxPoint x="2128" y="700" />
              <mxPoint x="1717" y="700" />
            </Array>
          </mxGeometry>
        </mxCell>
        <mxCell id="MuZfCcUwaussZc465k3L-72" style="edgeStyle=orthogonalEdgeStyle;rounded=0;orthogonalLoop=1;jettySize=auto;html=1;exitX=0.5;exitY=1;exitDx=0;exitDy=0;" edge="1" parent="1" source="3H9-l_bYr0BemmVUanZa-144" target="MuZfCcUwaussZc465k3L-53">
          <mxGeometry relative="1" as="geometry">
            <Array as="points">
              <mxPoint x="2128" y="700" />
              <mxPoint x="1802" y="700" />
            </Array>
          </mxGeometry>
        </mxCell>
        <mxCell id="MuZfCcUwaussZc465k3L-73" style="edgeStyle=orthogonalEdgeStyle;rounded=0;orthogonalLoop=1;jettySize=auto;html=1;exitX=0.5;exitY=1;exitDx=0;exitDy=0;" edge="1" parent="1" source="3H9-l_bYr0BemmVUanZa-144" target="3H9-l_bYr0BemmVUanZa-174">
          <mxGeometry relative="1" as="geometry">
            <Array as="points">
              <mxPoint x="2128" y="700" />
              <mxPoint x="1887" y="700" />
            </Array>
          </mxGeometry>
        </mxCell>
        <mxCell id="MuZfCcUwaussZc465k3L-74" style="edgeStyle=orthogonalEdgeStyle;rounded=0;orthogonalLoop=1;jettySize=auto;html=1;exitX=0.5;exitY=1;exitDx=0;exitDy=0;" edge="1" parent="1" source="3H9-l_bYr0BemmVUanZa-144" target="MuZfCcUwaussZc465k3L-54">
          <mxGeometry relative="1" as="geometry">
            <Array as="points">
              <mxPoint x="2128" y="700" />
              <mxPoint x="1977" y="700" />
            </Array>
          </mxGeometry>
        </mxCell>
        <mxCell id="MuZfCcUwaussZc465k3L-75" style="edgeStyle=orthogonalEdgeStyle;rounded=0;orthogonalLoop=1;jettySize=auto;html=1;exitX=0.5;exitY=1;exitDx=0;exitDy=0;" edge="1" parent="1" source="3H9-l_bYr0BemmVUanZa-144" target="3H9-l_bYr0BemmVUanZa-175">
          <mxGeometry relative="1" as="geometry">
            <Array as="points">
              <mxPoint x="2128" y="700" />
              <mxPoint x="2069" y="700" />
            </Array>
          </mxGeometry>
        </mxCell>
        <mxCell id="MuZfCcUwaussZc465k3L-76" style="edgeStyle=orthogonalEdgeStyle;rounded=0;orthogonalLoop=1;jettySize=auto;html=1;exitX=0.5;exitY=1;exitDx=0;exitDy=0;" edge="1" parent="1" source="3H9-l_bYr0BemmVUanZa-144" target="3H9-l_bYr0BemmVUanZa-162">
          <mxGeometry relative="1" as="geometry">
            <Array as="points">
              <mxPoint x="2128" y="700" />
              <mxPoint x="2154" y="700" />
            </Array>
          </mxGeometry>
        </mxCell>
        <mxCell id="3H9-l_bYr0BemmVUanZa-144" value="&lt;font style=&quot;font-size: 14px;&quot;&gt;Administration Dashboard&lt;/font&gt;" style="rounded=1;whiteSpace=wrap;html=1;fillColor=#D4E1F5;" parent="1" vertex="1">
          <mxGeometry x="2068" y="160" width="120" height="60" as="geometry" />
        </mxCell>
        <mxCell id="3H9-l_bYr0BemmVUanZa-147" value="&lt;font style=&quot;font-size: 14px;&quot;&gt;Stories Detail&lt;/font&gt;" style="rounded=1;whiteSpace=wrap;html=1;fillColor=#BDDEB0;" parent="1" vertex="1">
          <mxGeometry x="440" y="600" width="120" height="60" as="geometry" />
        </mxCell>
        <mxCell id="3H9-l_bYr0BemmVUanZa-149" value="&lt;font style=&quot;font-size: 14px;&quot;&gt;Manage News&lt;/font&gt;" style="rounded=1;whiteSpace=wrap;html=1;fillColor=#D4E1F5;" parent="1" vertex="1">
          <mxGeometry x="1357" y="760" width="60" height="60" as="geometry" />
        </mxCell>
        <mxCell id="3H9-l_bYr0BemmVUanZa-159" value="&lt;font style=&quot;font-size: 14px;&quot;&gt;Manage Pages&lt;/font&gt;" style="rounded=1;whiteSpace=wrap;html=1;fillColor=#D4E1F5;" parent="1" vertex="1">
          <mxGeometry x="1287" y="760" width="60" height="60" as="geometry" />
        </mxCell>
        <mxCell id="3H9-l_bYr0BemmVUanZa-160" value="&lt;font style=&quot;font-size: 14px;&quot;&gt;Manage Metro Areas&lt;/font&gt;" style="rounded=1;whiteSpace=wrap;html=1;fillColor=#D4E1F5;" parent="1" vertex="1">
          <mxGeometry x="1197" y="760" width="80" height="60" as="geometry" />
        </mxCell>
        <mxCell id="3H9-l_bYr0BemmVUanZa-161" value="&lt;font style=&quot;font-size: 14px;&quot;&gt;Manage Media&lt;/font&gt;" style="rounded=1;whiteSpace=wrap;html=1;fillColor=#D4E1F5;" parent="1" vertex="1">
          <mxGeometry x="1127" y="760" width="60" height="60" as="geometry" />
        </mxCell>
        <mxCell id="3H9-l_bYr0BemmVUanZa-162" value="&lt;font style=&quot;font-size: 14px;&quot;&gt;Manage Users&lt;/font&gt;" style="rounded=1;whiteSpace=wrap;html=1;fillColor=#D4E1F5;" parent="1" vertex="1">
          <mxGeometry x="2119" y="760" width="69" height="60" as="geometry" />
        </mxCell>
        <mxCell id="3H9-l_bYr0BemmVUanZa-163" value="&lt;font style=&quot;font-size: 14px;&quot;&gt;Manage Configuration&lt;/font&gt;" style="rounded=1;whiteSpace=wrap;html=1;fillColor=#D4E1F5;" parent="1" vertex="1">
          <mxGeometry x="749" y="760" width="90" height="60" as="geometry" />
        </mxCell>
        <mxCell id="3H9-l_bYr0BemmVUanZa-164" value="&lt;font style=&quot;font-size: 14px;&quot;&gt;Manage Locations&lt;/font&gt;" style="rounded=1;whiteSpace=wrap;html=1;fillColor=#D4E1F5;" parent="1" vertex="1">
          <mxGeometry x="1009" y="760" width="70" height="60" as="geometry" />
        </mxCell>
        <mxCell id="3H9-l_bYr0BemmVUanZa-165" value="&lt;font style=&quot;font-size: 14px;&quot;&gt;Bulk Email&lt;/font&gt;" style="rounded=1;whiteSpace=wrap;html=1;fillColor=#D4E1F5;" parent="1" vertex="1">
          <mxGeometry x="599" y="760" width="60" height="60" as="geometry" />
        </mxCell>
        <mxCell id="3H9-l_bYr0BemmVUanZa-172" style="edgeStyle=orthogonalEdgeStyle;rounded=0;orthogonalLoop=1;jettySize=auto;html=1;exitX=0.5;exitY=1;exitDx=0;exitDy=0;entryX=0.5;entryY=0;entryDx=0;entryDy=0;" parent="1" source="3H9-l_bYr0BemmVUanZa-168" target="3H9-l_bYr0BemmVUanZa-169" edge="1">
          <mxGeometry relative="1" as="geometry" />
        </mxCell>
        <mxCell id="3H9-l_bYr0BemmVUanZa-168" value="&lt;font style=&quot;font-size: 14px;&quot;&gt;Search Bar&lt;/font&gt;" style="rounded=1;whiteSpace=wrap;html=1;fillColor=#fff2cc;" parent="1" vertex="1">
          <mxGeometry x="20" y="162" width="120" height="60" as="geometry" />
        </mxCell>
        <mxCell id="3H9-l_bYr0BemmVUanZa-169" value="&lt;font style=&quot;font-size: 14px;&quot;&gt;Search Results&lt;/font&gt;" style="rounded=1;whiteSpace=wrap;html=1;fillColor=#FFF2CC;" parent="1" vertex="1">
          <mxGeometry x="20" y="272" width="120" height="60" as="geometry" />
        </mxCell>
        <mxCell id="3H9-l_bYr0BemmVUanZa-174" value="&lt;font style=&quot;font-size: 14px;&quot;&gt;Manage Sign-Ups&lt;/font&gt;" style="rounded=1;whiteSpace=wrap;html=1;fillColor=#D4E1F5;" parent="1" vertex="1">
          <mxGeometry x="1847" y="760" width="80" height="60" as="geometry" />
        </mxCell>
        <mxCell id="3H9-l_bYr0BemmVUanZa-175" value="&lt;font style=&quot;font-size: 14px;&quot;&gt;Manage Volunteers&lt;/font&gt;" style="rounded=1;whiteSpace=wrap;html=1;fillColor=#D4E1F5;" parent="1" vertex="1">
          <mxGeometry x="2029" y="760" width="79" height="60" as="geometry" />
        </mxCell>
        <mxCell id="3H9-l_bYr0BemmVUanZa-176" value="&lt;font style=&quot;font-size: 14px;&quot;&gt;Manage Bed Requests&lt;/font&gt;" style="rounded=1;whiteSpace=wrap;html=1;fillColor=#D4E1F5;" parent="1" vertex="1">
          <mxGeometry x="509" y="760" width="80" height="60" as="geometry" />
        </mxCell>
        <mxCell id="3H9-l_bYr0BemmVUanZa-177" value="&lt;font style=&quot;font-size: 14px;&quot;&gt;Manage Donations&lt;/font&gt;" style="rounded=1;whiteSpace=wrap;html=1;fillColor=#D4E1F5;" parent="1" vertex="1">
          <mxGeometry x="929" y="760" width="70" height="60" as="geometry" />
        </mxCell>
        <mxCell id="3H9-l_bYr0BemmVUanZa-191" value="" style="rounded=0;whiteSpace=wrap;html=1;fillColor=none;" parent="1" vertex="1">
          <mxGeometry x="20" y="640" width="190" height="180" as="geometry" />
        </mxCell>
        <mxCell id="3H9-l_bYr0BemmVUanZa-193" value="&lt;b&gt;&lt;font style=&quot;font-size: 16px;&quot;&gt;Legend&lt;/font&gt;&lt;/b&gt;" style="text;html=1;strokeColor=none;fillColor=none;align=center;verticalAlign=middle;whiteSpace=wrap;rounded=0;" parent="1" vertex="1">
          <mxGeometry x="20" y="640" width="190" height="30" as="geometry" />
        </mxCell>
        <mxCell id="3H9-l_bYr0BemmVUanZa-196" value="" style="rounded=0;whiteSpace=wrap;html=1;fontSize=16;fillColor=#FFF2CC;" parent="1" vertex="1">
          <mxGeometry x="130" y="685" width="70" height="25" as="geometry" />
        </mxCell>
        <mxCell id="3H9-l_bYr0BemmVUanZa-197" value="" style="rounded=0;whiteSpace=wrap;html=1;fontSize=16;fillColor=#BDDEB0;" parent="1" vertex="1">
          <mxGeometry x="130" y="730" width="70" height="25" as="geometry" />
        </mxCell>
        <mxCell id="3H9-l_bYr0BemmVUanZa-198" value="" style="rounded=0;whiteSpace=wrap;html=1;fontSize=16;fillColor=#D4E1F5;" parent="1" vertex="1">
          <mxGeometry x="130" y="777.5" width="70" height="25" as="geometry" />
        </mxCell>
        <mxCell id="3H9-l_bYr0BemmVUanZa-199" value="National" style="text;html=1;strokeColor=none;fillColor=none;align=left;verticalAlign=middle;whiteSpace=wrap;rounded=0;fontSize=16;" parent="1" vertex="1">
          <mxGeometry x="30" y="687.5" width="60" height="20" as="geometry" />
        </mxCell>
        <mxCell id="3H9-l_bYr0BemmVUanZa-200" value="Location" style="text;html=1;strokeColor=none;fillColor=none;align=left;verticalAlign=middle;whiteSpace=wrap;rounded=0;fontSize=16;" parent="1" vertex="1">
          <mxGeometry x="30" y="732.5" width="60" height="20" as="geometry" />
        </mxCell>
        <mxCell id="3H9-l_bYr0BemmVUanZa-201" value="Admin" style="text;html=1;strokeColor=none;fillColor=none;align=left;verticalAlign=middle;whiteSpace=wrap;rounded=0;fontSize=16;" parent="1" vertex="1">
          <mxGeometry x="30" y="780" width="60" height="20" as="geometry" />
        </mxCell>
        <mxCell id="O9UMptHPrvoA3U17ZO_q-6" style="edgeStyle=orthogonalEdgeStyle;rounded=0;orthogonalLoop=1;jettySize=auto;html=1;exitX=0.5;exitY=1;exitDx=0;exitDy=0;entryX=0.5;entryY=0;entryDx=0;entryDy=0;" parent="1" source="O9UMptHPrvoA3U17ZO_q-1" target="O9UMptHPrvoA3U17ZO_q-2" edge="1">
          <mxGeometry relative="1" as="geometry" />
        </mxCell>
        <mxCell id="O9UMptHPrvoA3U17ZO_q-7" style="edgeStyle=orthogonalEdgeStyle;rounded=0;orthogonalLoop=1;jettySize=auto;html=1;exitX=0.5;exitY=1;exitDx=0;exitDy=0;entryX=0.5;entryY=0;entryDx=0;entryDy=0;" parent="1" source="O9UMptHPrvoA3U17ZO_q-1" target="O9UMptHPrvoA3U17ZO_q-3" edge="1">
          <mxGeometry relative="1" as="geometry" />
        </mxCell>
        <mxCell id="O9UMptHPrvoA3U17ZO_q-1" value="&lt;font style=&quot;font-size: 14px;&quot;&gt;Start A Bed Brigade Chapter&lt;/font&gt;" style="rounded=1;whiteSpace=wrap;html=1;fillColor=#FFF2CC;" parent="1" vertex="1">
          <mxGeometry x="1651" y="161" width="150" height="60" as="geometry" />
        </mxCell>
        <mxCell id="O9UMptHPrvoA3U17ZO_q-11" style="edgeStyle=orthogonalEdgeStyle;rounded=0;orthogonalLoop=1;jettySize=auto;html=1;exitX=0.5;exitY=1;exitDx=0;exitDy=0;entryX=0.5;entryY=0;entryDx=0;entryDy=0;" parent="1" source="O9UMptHPrvoA3U17ZO_q-2" target="O9UMptHPrvoA3U17ZO_q-8" edge="1">
          <mxGeometry relative="1" as="geometry" />
        </mxCell>
        <mxCell id="O9UMptHPrvoA3U17ZO_q-12" style="edgeStyle=orthogonalEdgeStyle;rounded=0;orthogonalLoop=1;jettySize=auto;html=1;exitX=0.5;exitY=1;exitDx=0;exitDy=0;entryX=0.5;entryY=0;entryDx=0;entryDy=0;" parent="1" source="O9UMptHPrvoA3U17ZO_q-2" target="O9UMptHPrvoA3U17ZO_q-9" edge="1">
          <mxGeometry relative="1" as="geometry" />
        </mxCell>
        <mxCell id="O9UMptHPrvoA3U17ZO_q-13" style="edgeStyle=orthogonalEdgeStyle;rounded=0;orthogonalLoop=1;jettySize=auto;html=1;exitX=0.5;exitY=1;exitDx=0;exitDy=0;entryX=0.5;entryY=0;entryDx=0;entryDy=0;" parent="1" source="O9UMptHPrvoA3U17ZO_q-2" target="O9UMptHPrvoA3U17ZO_q-10" edge="1">
          <mxGeometry relative="1" as="geometry" />
        </mxCell>
        <mxCell id="O9UMptHPrvoA3U17ZO_q-2" value="&lt;font style=&quot;font-size: 14px;&quot;&gt;Instructions&lt;/font&gt;" style="rounded=1;whiteSpace=wrap;html=1;fillColor=#FFF2CC;" parent="1" vertex="1">
          <mxGeometry x="1651" y="269" width="120" height="60" as="geometry" />
        </mxCell>
        <mxCell id="O9UMptHPrvoA3U17ZO_q-3" value="&lt;font style=&quot;font-size: 14px;&quot;&gt;How To Videos&lt;/font&gt;" style="rounded=1;whiteSpace=wrap;html=1;fillColor=#FFF2CC;" parent="1" vertex="1">
          <mxGeometry x="1791" y="269" width="120" height="60" as="geometry" />
        </mxCell>
        <mxCell id="O9UMptHPrvoA3U17ZO_q-8" value="&lt;font style=&quot;font-size: 14px;&quot;&gt;Instructions on Jigs&lt;/font&gt;" style="rounded=1;whiteSpace=wrap;html=1;fillColor=#FFF2CC;" parent="1" vertex="1">
          <mxGeometry x="1651" y="420" width="120" height="60" as="geometry" />
        </mxCell>
        <mxCell id="O9UMptHPrvoA3U17ZO_q-9" value="&lt;font style=&quot;font-size: 14px;&quot;&gt;Sourcing Vehicles&lt;/font&gt;" style="rounded=1;whiteSpace=wrap;html=1;fillColor=#FFF2CC;" parent="1" vertex="1">
          <mxGeometry x="1791" y="419" width="120" height="60" as="geometry" />
        </mxCell>
        <mxCell id="O9UMptHPrvoA3U17ZO_q-10" value="&lt;font style=&quot;font-size: 14px;&quot;&gt;Sourcing Storage&lt;/font&gt;" style="rounded=1;whiteSpace=wrap;html=1;fillColor=#FFF2CC;" parent="1" vertex="1">
          <mxGeometry x="1931" y="419" width="120" height="60" as="geometry" />
        </mxCell>
        <mxCell id="OqM1v74Wte-sSs_JMY1j-1" value="V2" style="text;html=1;strokeColor=none;fillColor=none;align=center;verticalAlign=middle;whiteSpace=wrap;rounded=0;fontStyle=1" parent="1" vertex="1">
          <mxGeometry x="110" y="196" width="30" height="30" as="geometry" />
        </mxCell>
        <mxCell id="OqM1v74Wte-sSs_JMY1j-2" value="V2" style="text;html=1;strokeColor=none;fillColor=none;align=center;verticalAlign=middle;whiteSpace=wrap;rounded=0;fontStyle=1" parent="1" vertex="1">
          <mxGeometry x="110" y="309" width="30" height="30" as="geometry" />
        </mxCell>
        <mxCell id="OqM1v74Wte-sSs_JMY1j-3" value="V2" style="text;html=1;strokeColor=none;fillColor=none;align=center;verticalAlign=middle;whiteSpace=wrap;rounded=0;fontStyle=1" parent="1" vertex="1">
          <mxGeometry x="1741" y="301" width="30" height="30" as="geometry" />
        </mxCell>
        <mxCell id="OqM1v74Wte-sSs_JMY1j-4" value="V2" style="text;html=1;strokeColor=none;fillColor=none;align=center;verticalAlign=middle;whiteSpace=wrap;rounded=0;fontStyle=1" parent="1" vertex="1">
          <mxGeometry x="1741" y="450" width="30" height="30" as="geometry" />
        </mxCell>
        <mxCell id="OqM1v74Wte-sSs_JMY1j-5" value="V2" style="text;html=1;strokeColor=none;fillColor=none;align=center;verticalAlign=middle;whiteSpace=wrap;rounded=0;fontStyle=1" parent="1" vertex="1">
          <mxGeometry x="1881" y="452" width="30" height="30" as="geometry" />
        </mxCell>
        <mxCell id="OqM1v74Wte-sSs_JMY1j-6" value="V2" style="text;html=1;strokeColor=none;fillColor=none;align=center;verticalAlign=middle;whiteSpace=wrap;rounded=0;fontStyle=1" parent="1" vertex="1">
          <mxGeometry x="2021" y="452" width="30" height="30" as="geometry" />
        </mxCell>
        <mxCell id="OqM1v74Wte-sSs_JMY1j-7" value="V2" style="text;html=1;strokeColor=none;fillColor=none;align=center;verticalAlign=middle;whiteSpace=wrap;rounded=0;fontStyle=1" parent="1" vertex="1">
          <mxGeometry x="1881" y="301" width="30" height="30" as="geometry" />
        </mxCell>
        <mxCell id="OqM1v74Wte-sSs_JMY1j-8" value="V2" style="text;html=1;strokeColor=none;fillColor=none;align=center;verticalAlign=middle;whiteSpace=wrap;rounded=0;fontStyle=1" parent="1" vertex="1">
          <mxGeometry x="1771" y="195" width="30" height="30" as="geometry" />
        </mxCell>
        <mxCell id="MuZfCcUwaussZc465k3L-22" style="edgeStyle=orthogonalEdgeStyle;rounded=0;orthogonalLoop=1;jettySize=auto;html=1;exitX=0.5;exitY=1;exitDx=0;exitDy=0;entryX=0;entryY=0.5;entryDx=0;entryDy=0;fillColor=#e1d5e7;strokeColor=#9673a6;strokeWidth=3;" edge="1" parent="1" source="MuZfCcUwaussZc465k3L-1" target="MuZfCcUwaussZc465k3L-21">
          <mxGeometry relative="1" as="geometry" />
        </mxCell>
        <mxCell id="MuZfCcUwaussZc465k3L-1" value="&lt;font style=&quot;font-size: 14px;&quot;&gt;Contact Us&lt;/font&gt;" style="rounded=1;whiteSpace=wrap;html=1;fillColor=#FFF2CC;" vertex="1" parent="1">
          <mxGeometry x="870" y="161" width="120" height="60" as="geometry" />
        </mxCell>
        <mxCell id="MuZfCcUwaussZc465k3L-2" value="&lt;font style=&quot;font-size: 14px;&quot;&gt;History&lt;/font&gt;" style="rounded=1;whiteSpace=wrap;html=1;fillColor=#FFF2CC;" vertex="1" parent="1">
          <mxGeometry x="1010" y="161" width="80" height="60" as="geometry" />
        </mxCell>
        <mxCell id="MuZfCcUwaussZc465k3L-13" style="edgeStyle=orthogonalEdgeStyle;rounded=0;orthogonalLoop=1;jettySize=auto;html=1;exitX=0.5;exitY=1;exitDx=0;exitDy=0;" edge="1" parent="1" source="MuZfCcUwaussZc465k3L-3" target="MuZfCcUwaussZc465k3L-5">
          <mxGeometry relative="1" as="geometry" />
        </mxCell>
        <mxCell id="MuZfCcUwaussZc465k3L-3" value="&lt;font style=&quot;font-size: 14px;&quot;&gt;News&lt;/font&gt;" style="rounded=1;whiteSpace=wrap;html=1;fillColor=#FFF2CC;" vertex="1" parent="1">
          <mxGeometry x="1150" y="162" width="120" height="60" as="geometry" />
        </mxCell>
        <mxCell id="MuZfCcUwaussZc465k3L-4" value="&lt;font style=&quot;font-size: 14px;&quot;&gt;Locations&lt;/font&gt;" style="rounded=1;whiteSpace=wrap;html=1;fillColor=#FFF2CC;" vertex="1" parent="1">
          <mxGeometry x="1290" y="162" width="120" height="60" as="geometry" />
        </mxCell>
        <mxCell id="MuZfCcUwaussZc465k3L-5" value="&lt;font style=&quot;font-size: 14px;&quot;&gt;News Detail&lt;/font&gt;" style="rounded=1;whiteSpace=wrap;html=1;fillColor=#FFF2CC;" vertex="1" parent="1">
          <mxGeometry x="1150" y="249" width="120" height="60" as="geometry" />
        </mxCell>
        <mxCell id="MuZfCcUwaussZc465k3L-14" style="edgeStyle=orthogonalEdgeStyle;rounded=0;orthogonalLoop=1;jettySize=auto;html=1;exitX=0.5;exitY=1;exitDx=0;exitDy=0;entryX=1;entryY=0.5;entryDx=0;entryDy=0;fillColor=#d5e8d4;strokeColor=#82b366;strokeWidth=3;" edge="1" parent="1" source="MuZfCcUwaussZc465k3L-4" target="3H9-l_bYr0BemmVUanZa-121">
          <mxGeometry relative="1" as="geometry" />
        </mxCell>
        <mxCell id="MuZfCcUwaussZc465k3L-31" style="edgeStyle=orthogonalEdgeStyle;rounded=0;orthogonalLoop=1;jettySize=auto;html=1;exitX=0.25;exitY=1;exitDx=0;exitDy=0;entryX=0.5;entryY=0;entryDx=0;entryDy=0;fillColor=#e1d5e7;strokeColor=#9673a6;strokeWidth=3;" edge="1" parent="1" source="MuZfCcUwaussZc465k3L-17" target="3H9-l_bYr0BemmVUanZa-132">
          <mxGeometry relative="1" as="geometry" />
        </mxCell>
        <mxCell id="MuZfCcUwaussZc465k3L-17" value="&lt;span style=&quot;font-size: 14px;&quot;&gt;Search Location&lt;/span&gt;" style="rounded=1;whiteSpace=wrap;html=1;fillColor=#FFF2CC;" vertex="1" parent="1">
          <mxGeometry x="160" y="272" width="120" height="60" as="geometry" />
        </mxCell>
        <mxCell id="MuZfCcUwaussZc465k3L-19" value="" style="edgeStyle=orthogonalEdgeStyle;rounded=0;orthogonalLoop=1;jettySize=auto;html=1;exitX=0.5;exitY=1;exitDx=0;exitDy=0;entryX=0.5;entryY=0;entryDx=0;entryDy=0;fillColor=#e1d5e7;strokeColor=#9673a6;strokeWidth=3;" edge="1" parent="1" source="3H9-l_bYr0BemmVUanZa-116" target="MuZfCcUwaussZc465k3L-18">
          <mxGeometry relative="1" as="geometry">
            <mxPoint x="360" y="222" as="sourcePoint" />
            <mxPoint x="360" y="510" as="targetPoint" />
          </mxGeometry>
        </mxCell>
        <mxCell id="MuZfCcUwaussZc465k3L-32" style="edgeStyle=orthogonalEdgeStyle;rounded=0;orthogonalLoop=1;jettySize=auto;html=1;exitX=0.25;exitY=1;exitDx=0;exitDy=0;entryX=0.5;entryY=0;entryDx=0;entryDy=0;fillColor=#e1d5e7;strokeColor=#9673a6;strokeWidth=3;" edge="1" parent="1" source="MuZfCcUwaussZc465k3L-18" target="3H9-l_bYr0BemmVUanZa-133">
          <mxGeometry relative="1" as="geometry" />
        </mxCell>
        <mxCell id="MuZfCcUwaussZc465k3L-18" value="&lt;span style=&quot;font-size: 14px;&quot;&gt;Search Location&lt;/span&gt;" style="rounded=1;whiteSpace=wrap;html=1;fillColor=#FFF2CC;" vertex="1" parent="1">
          <mxGeometry x="300" y="272" width="120" height="60" as="geometry" />
        </mxCell>
        <mxCell id="MuZfCcUwaussZc465k3L-34" style="edgeStyle=orthogonalEdgeStyle;rounded=0;orthogonalLoop=1;jettySize=auto;html=1;exitX=0.5;exitY=1;exitDx=0;exitDy=0;entryX=0.5;entryY=0;entryDx=0;entryDy=0;fillColor=#e1d5e7;strokeColor=#9673a6;strokeWidth=3;" edge="1" parent="1" source="MuZfCcUwaussZc465k3L-21" target="3H9-l_bYr0BemmVUanZa-135">
          <mxGeometry relative="1" as="geometry" />
        </mxCell>
        <mxCell id="MuZfCcUwaussZc465k3L-21" value="&lt;span style=&quot;font-size: 14px;&quot;&gt;Search Location&lt;/span&gt;" style="rounded=1;whiteSpace=wrap;html=1;fillColor=#FFF2CC;" vertex="1" parent="1">
          <mxGeometry x="970" y="272" width="120" height="60" as="geometry" />
        </mxCell>
        <mxCell id="MuZfCcUwaussZc465k3L-25" value="&lt;font style=&quot;font-size: 14px;&quot;&gt;Calendar&lt;/font&gt;" style="rounded=1;whiteSpace=wrap;html=1;fillColor=#BDDEB0;" vertex="1" parent="1">
          <mxGeometry x="860" y="510" width="120" height="60" as="geometry" />
        </mxCell>
        <mxCell id="MuZfCcUwaussZc465k3L-26" value="&lt;font style=&quot;font-size: 14px;&quot;&gt;About Us&lt;/font&gt;" style="rounded=1;whiteSpace=wrap;html=1;fillColor=#BDDEB0;" vertex="1" parent="1">
          <mxGeometry x="580" y="510" width="120" height="60" as="geometry" />
        </mxCell>
        <mxCell id="MuZfCcUwaussZc465k3L-27" value="&lt;font style=&quot;font-size: 14px;&quot;&gt;History&lt;/font&gt;" style="rounded=1;whiteSpace=wrap;html=1;fillColor=#BDDEB0;" vertex="1" parent="1">
          <mxGeometry x="1140" y="510" width="120" height="60" as="geometry" />
        </mxCell>
        <mxCell id="MuZfCcUwaussZc465k3L-28" value="&lt;font style=&quot;font-size: 14px;&quot;&gt;Upcoming Events&lt;/font&gt;" style="rounded=1;whiteSpace=wrap;html=1;fillColor=#BDDEB0;" vertex="1" parent="1">
          <mxGeometry x="1420" y="510" width="120" height="60" as="geometry" />
        </mxCell>
        <mxCell id="MuZfCcUwaussZc465k3L-29" value="&lt;font style=&quot;font-size: 14px;&quot;&gt;News&lt;/font&gt;" style="rounded=1;whiteSpace=wrap;html=1;fillColor=#BDDEB0;" vertex="1" parent="1">
          <mxGeometry x="1560" y="510" width="120" height="60" as="geometry" />
        </mxCell>
        <mxCell id="MuZfCcUwaussZc465k3L-30" value="&lt;font style=&quot;font-size: 14px;&quot;&gt;New Detail&lt;/font&gt;" style="rounded=1;whiteSpace=wrap;html=1;fillColor=#BDDEB0;" vertex="1" parent="1">
          <mxGeometry x="1560" y="595" width="120" height="60" as="geometry" />
        </mxCell>
        <mxCell id="MuZfCcUwaussZc465k3L-35" style="edgeStyle=orthogonalEdgeStyle;rounded=0;orthogonalLoop=1;jettySize=auto;html=1;exitX=0.5;exitY=1;exitDx=0;exitDy=0;entryX=0.665;entryY=0.012;entryDx=0;entryDy=0;entryPerimeter=0;" edge="1" parent="1" source="3H9-l_bYr0BemmVUanZa-121" target="3H9-l_bYr0BemmVUanZa-132">
          <mxGeometry relative="1" as="geometry" />
        </mxCell>
        <mxCell id="MuZfCcUwaussZc465k3L-36" style="edgeStyle=orthogonalEdgeStyle;rounded=0;orthogonalLoop=1;jettySize=auto;html=1;exitX=0.5;exitY=1;exitDx=0;exitDy=0;entryX=0.68;entryY=0.012;entryDx=0;entryDy=0;entryPerimeter=0;" edge="1" parent="1" source="3H9-l_bYr0BemmVUanZa-121" target="3H9-l_bYr0BemmVUanZa-133">
          <mxGeometry relative="1" as="geometry" />
        </mxCell>
        <mxCell id="MuZfCcUwaussZc465k3L-46" value="&lt;font style=&quot;font-size: 14px;&quot;&gt;Bulk Text Messages&lt;/font&gt;" style="rounded=1;whiteSpace=wrap;html=1;fillColor=#D4E1F5;" vertex="1" parent="1">
          <mxGeometry x="669" y="760" width="70" height="60" as="geometry" />
        </mxCell>
        <mxCell id="MuZfCcUwaussZc465k3L-48" value="&lt;font style=&quot;font-size: 14px;&quot;&gt;Manage Contacts&lt;/font&gt;" style="rounded=1;whiteSpace=wrap;html=1;fillColor=#D4E1F5;" vertex="1" parent="1">
          <mxGeometry x="849" y="760" width="70" height="60" as="geometry" />
        </mxCell>
        <mxCell id="MuZfCcUwaussZc465k3L-49" value="&lt;font style=&quot;font-size: 14px;&quot;&gt;Manage Newsletters&lt;/font&gt;" style="rounded=1;whiteSpace=wrap;html=1;fillColor=#D4E1F5;" vertex="1" parent="1">
          <mxGeometry x="1427" y="760" width="80" height="60" as="geometry" />
        </mxCell>
        <mxCell id="MuZfCcUwaussZc465k3L-50" value="&lt;font style=&quot;font-size: 14px;&quot;&gt;Manage Stories&lt;/font&gt;" style="rounded=1;whiteSpace=wrap;html=1;fillColor=#D4E1F5;" vertex="1" parent="1">
          <mxGeometry x="1517" y="760" width="60" height="60" as="geometry" />
        </mxCell>
        <mxCell id="MuZfCcUwaussZc465k3L-51" value="&lt;font style=&quot;font-size: 14px;&quot;&gt;Sever Information&lt;/font&gt;" style="rounded=1;whiteSpace=wrap;html=1;fillColor=#D4E1F5;" vertex="1" parent="1">
          <mxGeometry x="1587" y="760" width="80" height="60" as="geometry" />
        </mxCell>
        <mxCell id="MuZfCcUwaussZc465k3L-52" value="&lt;font style=&quot;font-size: 14px;&quot;&gt;Manage Schedules&lt;/font&gt;" style="rounded=1;whiteSpace=wrap;html=1;fillColor=#D4E1F5;" vertex="1" parent="1">
          <mxGeometry x="1677" y="760" width="80" height="60" as="geometry" />
        </mxCell>
        <mxCell id="MuZfCcUwaussZc465k3L-53" value="&lt;font style=&quot;font-size: 14px;&quot;&gt;Manage Schedules&lt;/font&gt;" style="rounded=1;whiteSpace=wrap;html=1;fillColor=#D4E1F5;" vertex="1" parent="1">
          <mxGeometry x="1767" y="760" width="70" height="60" as="geometry" />
        </mxCell>
        <mxCell id="MuZfCcUwaussZc465k3L-54" value="&lt;font style=&quot;font-size: 14px;&quot;&gt;Text Messages&lt;/font&gt;" style="rounded=1;whiteSpace=wrap;html=1;fillColor=#D4E1F5;" vertex="1" parent="1">
          <mxGeometry x="1937" y="760" width="80" height="60" as="geometry" />
        </mxCell>
      </root>
    </mxGraphModel>
  </diagram>
</mxfile>
